<svg width="108" height="24" viewBox="0 0 108 24" fill="none" xmlns="http://www.w3.org/2000/svg">
<g clip-path="url(#clip0_7_9)">
<path d="M49.7871 6.91589C50.8786 6.91589 51.921 7.08883 52.9111 7.4364H52.9121C53.9274 7.76932 54.8212 8.27162 55.5869 8.94519H55.5859C56.3689 9.61857 56.9827 10.4478 57.4268 11.4266L57.5918 11.8016C57.9513 12.689 58.127 13.6742 58.127 14.7489C58.1269 15.9905 57.8984 17.1146 57.4307 18.1112C56.986 19.0951 56.3723 19.9374 55.5879 20.6298H55.5869C54.8238 21.3011 53.9331 21.8097 52.9219 22.16L52.9229 22.161C51.9293 22.5113 50.8828 22.6854 49.7871 22.6854C48.7079 22.6854 47.6625 22.511 46.6543 22.162L46.6523 22.161C45.6574 21.8103 44.7759 21.3003 44.0137 20.6298L44.0088 20.6259C43.2449 19.9351 42.6333 19.0971 42.1729 18.119L42.1689 18.1122V18.1112C41.7187 17.1147 41.5 15.9905 41.5 14.7489C41.5 13.5234 41.7193 12.4148 42.1709 11.4344L42.1729 11.4305C42.6339 10.4513 43.2466 9.61999 44.0137 8.94519C44.7778 8.27298 45.662 7.77074 46.6602 7.43738C47.6667 7.08966 48.7098 6.91592 49.7871 6.91589ZM49.7871 12.9784C49.2598 12.9784 48.8613 13.1518 48.5479 13.4882L48.4355 13.6249C48.1927 13.9518 48.0732 14.3216 48.0732 14.7489C48.0733 15.2733 48.2391 15.6983 48.5664 16.0536C48.881 16.395 49.282 16.5712 49.8135 16.5712C50.3449 16.5711 50.746 16.395 51.0605 16.0536C51.3878 15.6983 51.5527 15.2732 51.5527 14.7489C51.5527 14.2733 51.3887 13.8651 51.041 13.5028L51.0342 13.496C50.7196 13.1545 50.3186 12.9784 49.7871 12.9784Z" stroke="#73E3FF"/>
<path d="M49.8437 8.65997C50.6899 8.65997 51.4993 8.79624 52.2685 9.06915L52.2695 9.06818C53.0578 9.32973 53.7532 9.72504 54.3496 10.2547C54.9648 10.7893 55.4457 11.4482 55.792 12.2234H55.791C56.156 12.9974 56.333 13.869 56.333 14.8279C56.333 15.8003 56.1556 16.6847 55.791 17.4715C55.4453 18.2456 54.9674 18.9102 54.3555 19.4568L54.3545 19.4578C53.7596 19.9873 53.0655 20.3872 52.2793 20.6629L52.2803 20.6639C51.5076 20.9395 50.6941 21.077 49.8437 21.077C49.0058 21.0769 48.1942 20.9391 47.4111 20.6649L47.4082 20.6639C46.6342 20.3878 45.9474 19.9865 45.3535 19.4578L45.3486 19.4529C44.753 18.908 44.2774 18.2478 43.9199 17.4793L43.916 17.4725C43.5646 16.6856 43.3955 15.8006 43.3955 14.8279C43.3955 13.8678 43.5654 12.9951 43.918 12.2205L43.9199 12.2166C44.2779 11.4471 44.7548 10.7915 45.3535 10.2586C45.9494 9.72821 46.6387 9.33183 47.416 9.06915V9.07013C48.1976 8.79701 49.0075 8.66002 49.8437 8.65997Z" stroke="#73E3FF"/>
<g filter="url(#filter0_f_7_9)">
<path d="M49.7871 6.91589C50.8786 6.91589 51.921 7.08883 52.9111 7.4364H52.9121C53.9274 7.76932 54.8212 8.27162 55.5869 8.94519H55.5859C56.3689 9.61857 56.9827 10.4478 57.4268 11.4266L57.5918 11.8016C57.9513 12.689 58.127 13.6742 58.127 14.7489C58.1269 15.9905 57.8984 17.1146 57.4307 18.1112C56.986 19.0951 56.3723 19.9374 55.5879 20.6298H55.5869C54.8238 21.3011 53.9331 21.8097 52.9219 22.16L52.9229 22.161C51.9293 22.5113 50.8828 22.6854 49.7871 22.6854C48.7079 22.6854 47.6625 22.511 46.6543 22.162L46.6523 22.161C45.6574 21.8103 44.7759 21.3003 44.0137 20.6298L44.0088 20.6259C43.2449 19.9351 42.6333 19.0971 42.1729 18.119L42.1689 18.1122V18.1112C41.7187 17.1147 41.5 15.9905 41.5 14.7489C41.5 13.5234 41.7193 12.4148 42.1709 11.4344L42.1729 11.4305C42.6339 10.4513 43.2466 9.61999 44.0137 8.94519C44.7778 8.27298 45.662 7.77074 46.6602 7.43738C47.6667 7.08966 48.7098 6.91592 49.7871 6.91589ZM49.7871 12.9784C49.2598 12.9784 48.8613 13.1518 48.5479 13.4882L48.4355 13.6249C48.1927 13.9518 48.0732 14.3216 48.0732 14.7489C48.0733 15.2733 48.2391 15.6983 48.5664 16.0536C48.881 16.395 49.282 16.5712 49.8135 16.5712C50.3449 16.5711 50.746 16.395 51.0605 16.0536C51.3878 15.6983 51.5527 15.2732 51.5527 14.7489C51.5527 14.2733 51.3887 13.8651 51.041 13.5028L51.0342 13.496C50.7196 13.1545 50.3186 12.9784 49.7871 12.9784Z" stroke="#73E3FF"/>
<path d="M49.8437 8.65997C50.6899 8.65997 51.4993 8.79624 52.2685 9.06915L52.2695 9.06818C53.0578 9.32973 53.7532 9.72504 54.3496 10.2547C54.9648 10.7893 55.4457 11.4482 55.792 12.2234H55.791C56.156 12.9974 56.333 13.869 56.333 14.8279C56.333 15.8003 56.1556 16.6847 55.791 17.4715C55.4453 18.2456 54.9674 18.9102 54.3555 19.4568L54.3545 19.4578C53.7596 19.9873 53.0655 20.3872 52.2793 20.6629L52.2803 20.6639C51.5076 20.9395 50.6941 21.077 49.8437 21.077C49.0058 21.0769 48.1942 20.9391 47.4111 20.6649L47.4082 20.6639C46.6342 20.3878 45.9474 19.9865 45.3535 19.4578L45.3486 19.4529C44.753 18.908 44.2774 18.2478 43.9199 17.4793L43.916 17.4725C43.5646 16.6856 43.3955 15.8006 43.3955 14.8279C43.3955 13.8678 43.5654 12.9951 43.918 12.2205L43.9199 12.2166C44.2779 11.4471 44.7548 10.7915 45.3535 10.2586C45.9494 9.72821 46.6387 9.33183 47.416 9.06915V9.07013C48.1976 8.79701 49.0075 8.66002 49.8437 8.65997Z" stroke="#73E3FF"/>
</g>
<path d="M107.568 18.2165C107.568 19.3093 107.331 20.2269 106.858 20.9691C106.405 21.7114 105.819 22.3093 105.098 22.7629C104.399 23.1959 103.627 23.5052 102.783 23.6908C101.94 23.8969 101.137 24 100.376 24C98.9762 24 97.5975 23.7939 96.2393 23.3815C94.9017 22.9897 93.739 22.4227 92.7512 21.6805L96.2393 17.6289C96.7332 18.0825 97.3094 18.4537 97.9679 18.7423C98.647 19.0104 99.2952 19.1444 99.9126 19.1444C100.16 19.1444 100.386 19.1031 100.592 19.0207C100.818 18.9176 100.931 18.7423 100.931 18.4949C100.931 18.2269 100.736 18.0207 100.345 17.8763C99.9743 17.7114 99.3158 17.5155 98.3692 17.2887C97.8547 17.165 97.3299 16.9897 96.7949 16.7629C96.2599 16.5155 95.766 16.1959 95.3132 15.8042C94.8811 15.4124 94.521 14.9382 94.2329 14.3815C93.9448 13.8042 93.8007 13.1238 93.8007 12.3403C93.8007 11.2887 94.0271 10.3918 94.4798 9.64956C94.9531 8.9073 95.5396 8.30936 96.2393 7.85575C96.9595 7.38153 97.7312 7.04132 98.5544 6.83514C99.3981 6.60834 100.19 6.49493 100.931 6.49493C102.187 6.49493 103.432 6.6805 104.666 7.05163C105.901 7.42277 107.012 7.93823 108 8.59802L104.666 12.5877C104.152 12.2578 103.627 12.0001 103.092 11.8145C102.557 11.6289 102.032 11.5362 101.518 11.5362C101.168 11.5362 100.88 11.5877 100.653 11.6908C100.427 11.7733 100.314 11.9485 100.314 12.2166C100.314 12.4228 100.437 12.5877 100.684 12.7114C100.952 12.8145 101.549 12.9588 102.475 13.1444C103.113 13.2681 103.73 13.464 104.327 13.732C104.944 13.9794 105.489 14.3093 105.963 14.7217C106.457 15.1135 106.848 15.598 107.136 16.1753C107.424 16.7526 107.568 17.433 107.568 18.2165Z" fill="url(#paint0_linear_7_9)"/>
<path d="M91.6064 23.3814H84.6611V21.5876H84.5994C84.1878 22.1855 83.5704 22.7113 82.7473 23.1649C81.9447 23.5979 81.0187 23.8144 79.9692 23.8144C78.8168 23.8144 77.8701 23.6185 77.1293 23.2268C76.3885 22.8144 75.7917 22.2886 75.339 21.6494C74.9068 20.9897 74.5981 20.2577 74.4129 19.4536C74.2483 18.6288 74.166 17.8144 74.166 17.0103V7.1134H81.3274V15.7113C81.3274 16.5361 81.4508 17.1134 81.6978 17.4433C81.9653 17.7732 82.3563 17.9381 82.8708 17.9381C83.3441 17.9381 83.7248 17.7525 84.0129 17.3814C84.3216 16.9897 84.4759 16.433 84.4759 15.7113V7.1134H91.6064V23.3814Z" fill="url(#paint1_linear_7_9)"/>
<path d="M61.2844 7.11347H68.1371V8.96913H68.1988C68.5486 8.30934 69.0631 7.76295 69.7422 7.32996C70.4419 6.89697 71.2547 6.68048 72.1808 6.68048C72.7364 6.68048 73.1891 6.73203 73.539 6.83512L72.9834 12.897C72.757 12.8351 72.4998 12.7939 72.2117 12.7732C71.9441 12.732 71.6972 12.7114 71.4708 12.7114C70.5448 12.7114 69.804 12.9794 69.2483 13.5155C68.6927 14.0516 68.4149 14.7114 68.4149 15.4949V23.3815H61.2844V7.11347Z" fill="url(#paint2_linear_7_9)"/>
<path d="M33.0994 6.68039C34.2313 6.68039 35.1676 6.88658 35.9084 7.29895C36.6698 7.71132 37.2666 8.2474 37.6988 8.90719C38.1515 9.54637 38.4602 10.268 38.6248 11.0721C38.81 11.8763 38.9026 12.6804 38.9026 13.4845V23.3814H31.7413V14.7216C31.7413 13.8969 31.6075 13.3195 31.34 12.9897C31.093 12.6598 30.7123 12.4948 30.1979 12.4948C29.7863 12.4948 29.4159 12.6804 29.0866 13.0515C28.7573 13.402 28.5927 13.969 28.5927 14.7525V23.3814H21.4622V0H28.5927V8.90719H28.6544C29.066 8.30926 29.6525 7.79379 30.4139 7.3608C31.1753 6.9072 32.0705 6.68039 33.0994 6.68039Z" fill="url(#paint3_linear_7_9)"/>
<path d="M0 12.4329C0 10.6804 0.30868 9.09275 0.926041 7.67007C1.5434 6.2474 2.38713 5.0309 3.45722 4.0206C4.52731 3.01029 5.78261 2.2371 7.22312 1.70102C8.68421 1.14432 10.2379 0.865967 11.8842 0.865967C13.5716 0.865967 15.1665 1.14432 16.6687 1.70102C18.171 2.2371 19.4263 2.96905 20.4346 3.89689L15.9279 9.34017C15.5163 8.80409 15.0019 8.40203 14.3845 8.13399C13.7671 7.84533 13.0778 7.701 12.3163 7.701C11.699 7.701 11.1228 7.8144 10.5877 8.04121C10.0527 8.24739 9.57938 8.55667 9.16781 8.96904C8.77681 9.38141 8.46813 9.88656 8.24176 10.4845C8.0154 11.0618 7.90222 11.7113 7.90222 12.4329C7.90222 13.1546 8.0154 13.8041 8.24176 14.3814C8.48871 14.9381 8.80768 15.4226 9.19867 15.835C9.61025 16.2474 10.0836 16.567 10.6186 16.7938C11.1536 16.9999 11.7196 17.103 12.3163 17.103C13.1601 17.103 13.8803 16.9278 14.4771 16.5773C15.0945 16.2267 15.5781 15.8144 15.9279 15.3402L20.4346 20.7525C19.4469 21.7422 18.2327 22.536 16.7922 23.1339C15.3517 23.7113 13.7157 23.9999 11.8842 23.9999C10.2379 23.9999 8.68421 23.7216 7.22312 23.1649C5.78261 22.6082 4.52731 21.8247 3.45722 20.8144C2.38713 19.7834 1.5434 18.5669 0.926041 17.1649C0.30868 15.7422 0 14.1649 0 12.4329Z" fill="url(#paint4_linear_7_9)"/>
<path d="M0 12.4329C0 10.6804 0.30868 9.09275 0.926041 7.67007C1.5434 6.24739 2.38713 5.0309 3.45722 4.0206C4.52731 3.01029 5.78261 2.2371 7.22312 1.70102C8.68421 1.14432 10.2379 0.865967 11.8842 0.865967C13.5716 0.865967 15.1665 1.14432 16.6687 1.70102C18.171 2.2371 19.4263 2.96905 20.4346 3.89689L15.9279 9.34017C15.5163 8.80409 15.0019 8.40203 14.3845 8.13399C13.7671 7.84533 13.0778 7.701 12.3163 7.701C11.699 7.701 11.1228 7.8144 10.5877 8.0412C10.0527 8.24739 9.57938 8.55667 9.16781 8.96904C8.77681 9.38141 8.46813 9.88656 8.24176 10.4845C8.0154 11.0618 7.90222 11.7113 7.90222 12.4329C7.90222 13.1546 8.0154 13.8041 8.24176 14.3814C8.48871 14.9381 8.80768 15.4226 9.19867 15.835C9.61025 16.2474 10.0836 16.567 10.6186 16.7938C11.1536 16.9999 11.7196 17.103 12.3163 17.103C13.1601 17.103 13.8803 16.9278 14.4771 16.5773C15.0945 16.2267 15.5781 15.8144 15.9279 15.3402L20.4346 20.7525C19.4469 21.7422 18.2327 22.536 16.7922 23.1339C15.3517 23.7113 13.7157 23.9999 11.8842 23.9999C10.2379 23.9999 8.68421 23.7216 7.22312 23.1649C5.78261 22.6082 4.52731 21.8247 3.45722 20.8144C2.38713 19.7834 1.5434 18.5669 0.926041 17.1649C0.30868 15.7422 0 14.1649 0 12.4329Z" fill="url(#paint5_linear_7_9)"/>
</g>
<defs>
<filter id="filter0_f_7_9" x="37" y="2.41589" width="25.6267" height="24.7697" filterUnits="userSpaceOnUse" color-interpolation-filters="sRGB">
<feFlood flood-opacity="0" result="BackgroundImageFix"/>
<feBlend mode="normal" in="SourceGraphic" in2="BackgroundImageFix" result="shape"/>
<feGaussianBlur stdDeviation="2" result="effect1_foregroundBlur_7_9"/>
</filter>
<linearGradient id="paint0_linear_7_9" x1="92.7512" y1="15.2475" x2="108" y2="15.2475" gradientUnits="userSpaceOnUse">
<stop stop-color="#C3F3FF"/>
<stop offset="1" stop-color="#97CDDA"/>
</linearGradient>
<linearGradient id="paint1_linear_7_9" x1="74.166" y1="15.4639" x2="91.6064" y2="15.4639" gradientUnits="userSpaceOnUse">
<stop stop-color="#C3F3FF"/>
<stop offset="1" stop-color="#97CDDA"/>
</linearGradient>
<linearGradient id="paint2_linear_7_9" x1="61.2844" y1="15.031" x2="73.539" y2="15.031" gradientUnits="userSpaceOnUse">
<stop stop-color="#C3F3FF"/>
<stop offset="1" stop-color="#97CDDA"/>
</linearGradient>
<linearGradient id="paint3_linear_7_9" x1="21.4622" y1="11.6907" x2="38.9026" y2="11.6907" gradientUnits="userSpaceOnUse">
<stop stop-color="#C3F3FF"/>
<stop offset="1" stop-color="#97CDDA"/>
</linearGradient>
<linearGradient id="paint4_linear_7_9" x1="0" y1="12.4329" x2="20.4346" y2="12.4329" gradientUnits="userSpaceOnUse">
<stop stop-color="#C3F3FF"/>
<stop offset="1" stop-color="#97CDDA"/>
</linearGradient>
<linearGradient id="paint5_linear_7_9" x1="0" y1="12.4329" x2="20.4346" y2="12.4329" gradientUnits="userSpaceOnUse">
<stop stop-color="#C3F3FF"/>
<stop offset="1" stop-color="#97CDDA"/>
</linearGradient>
<clipPath id="clip0_7_9">
<rect width="108" height="24" fill="white"/>
</clipPath>
</defs>
</svg>
